<?xml version="1.0" encoding="utf-8"?>
<!-- Generator: Adobe Illustrator 22.1.0, SVG Export Plug-In . SVG Version: 6.00 Build 0)  -->
<svg version="1.1" id="Layer_2" xmlns="http://www.w3.org/2000/svg" xmlns:xlink="http://www.w3.org/1999/xlink" x="0px" y="0px"
	 viewBox="0 0 500 500" style="enable-background:new 0 0 500 500;" xml:space="preserve">
<path d="M118.5,197c12.7,0,24.6,4.7,33.7,13.2c8.9,8.3,12.8,19.3,12.8,30.8s-3.9,22.5-12.8,30.8c-9.1,8.5-21.1,13.2-33.7,13.2
	s-24.6-4.7-33.7-13.2C75.9,263.5,72,252.5,72,241s3.9-22.5,12.8-30.8C93.9,201.7,105.8,197,118.5,197 M118.5,183
	C85.1,183,57,209,57,241s28.1,58,61.5,58c33.4,0,61.5-26,61.5-58S151.9,183,118.5,183L118.5,183z"/>
<path d="M309,227c0-24-18-39-38-41c-7-0.7-55.5-1-55.5-1s-0.7,0-1.2,0h-13.6c-0.9,0-1.7,0.8-1.7,1.7v107.6c0,0.9,0.8,1.7,1.7,1.7
	h13.6c0.9,0,1.7-0.8,1.7-1.7V269h53.5l15,27h18l-18-30C284.5,266,309,256,309,227z M271,254c-3,1-11,1-11,1h-44.6
	c0,0-0.7-54.9-0.4-54.7V200c0,0,40.4,0.2,46.3,0.7C278,202,293,207,293,227.5C293,250,277,252,271,254z"/>
<path d="M468,160v160H36V160H468 M482,146H22v188h460V146L482,146z"/>
<path d="M386.5,197c12.7,0,24.6,4.7,33.7,13.2c8.9,8.3,12.8,19.3,12.8,30.8s-3.9,22.5-12.8,30.8c-9.1,8.5-21.1,13.2-33.7,13.2
	s-24.6-4.7-33.7-13.2c-8.9-8.3-12.8-19.3-12.8-30.8s3.9-22.5,12.8-30.8C361.9,201.7,373.8,197,386.5,197 M386.5,183
	c-33.4,0-61.5,26-61.5,58s28.1,58,61.5,58c33.4,0,61.5-26,61.5-58S419.9,183,386.5,183L386.5,183z"/>
</svg>
