<?xml version="1.0" encoding="utf-8"?>
<!-- Generator: Adobe Illustrator 22.1.0, SVG Export Plug-In . SVG Version: 6.00 Build 0)  -->
<svg version="1.1" id="Layer_2_1_" xmlns="http://www.w3.org/2000/svg" xmlns:xlink="http://www.w3.org/1999/xlink" x="0px" y="0px"
	 viewBox="0 0 500 200" style="enable-background:new 0 0 500 200;" xml:space="preserve">
<path d="M118.5,58c12.7,0,24.6,4.7,33.7,13.2c8.9,8.3,12.8,19.3,12.8,30.8s-3.9,22.5-12.8,30.8c-9.1,8.5-21.1,13.2-33.7,13.2
	s-24.6-4.7-33.7-13.2C75.9,124.5,72,113.5,72,102s3.9-22.5,12.8-30.8C93.9,62.7,105.8,58,118.5,58 M118.5,44C85.1,44,57,70,57,102
	s28.1,58,61.5,58s61.5-26,61.5-58S151.9,44,118.5,44L118.5,44z"/>
<path d="M309,88c0-24-18-39-38-41c-7-0.7-55.5-1-55.5-1s-0.7,0-1.2,0h-13.6c-0.9,0-1.7,0.8-1.7,1.7v107.6c0,0.9,0.8,1.7,1.7,1.7
	h13.6c0.9,0,1.7-0.8,1.7-1.7V130h53.5l15,27h18l-18-30C284.5,127,309,117,309,88z M271,115c-3,1-11,1-11,1h-44.6
	c0,0-0.7-54.9-0.4-54.7V61c0,0,40.4,0.2,46.3,0.7C278,63,293,68,293,88.5C293,111,277,113,271,115z"/>
<path d="M468,21v160H36V21H468 M482,7H22v188h460V7L482,7z"/>
<path d="M386.5,58c12.7,0,24.6,4.7,33.7,13.2c8.9,8.3,12.8,19.3,12.8,30.8s-3.9,22.5-12.8,30.8c-9.1,8.5-21.1,13.2-33.7,13.2
	s-24.6-4.7-33.7-13.2c-8.9-8.3-12.8-19.3-12.8-30.8s3.9-22.5,12.8-30.8C361.9,62.7,373.8,58,386.5,58 M386.5,44
	c-33.4,0-61.5,26-61.5,58s28.1,58,61.5,58s61.5-26,61.5-58S419.9,44,386.5,44L386.5,44z"/>
</svg>
